<svg id="Layer_1" data-name="Layer 1" xmlns="http://www.w3.org/2000/svg" viewBox="0 0 518.87 105.79"><defs><style>.cls-1{fill:#003e7e;}.cls-2{fill:#00a0af;}</style></defs><title>Artboard 4</title><path class="cls-1" d="M127.11,29.36h33a31.65,31.65,0,0,1,6.29.48,16.38,16.38,0,0,1,6.21,2.5,11.54,11.54,0,0,1,3.83,4.41A13.76,13.76,0,0,1,177.75,43a12.55,12.55,0,0,1-1.5,6.32,12,12,0,0,1-4.32,4.32,19.94,19.94,0,0,1-4.94,2c3.81.63,6.72,2,8.71,4.31a12.31,12.31,0,0,1,3,8.5,13,13,0,0,1-2.4,7.79,11.29,11.29,0,0,1-6.16,4.43,38.44,38.44,0,0,1-10.76,1.5H127.11Zm18.66,10.43v10.5h5.78c2.34,0,4-.47,5.06-1.4a4.79,4.79,0,0,0,1.57-3.73,5.19,5.19,0,0,0-.9-3,4.67,4.67,0,0,0-2.41-1.86,13,13,0,0,0-4.28-.54Zm0,21v11h5.45c2.58,0,4.47-.53,5.67-1.57a5.06,5.06,0,0,0,1.8-4,5.65,5.65,0,0,0-.86-3.08,4.57,4.57,0,0,0-2.35-1.88,13.36,13.36,0,0,0-4.32-.54Z"/><path class="cls-1" d="M200.15,29.36h27.67l18.69,52.83H225.4l-3.48-11.52H205L201.8,82.19H181.68Zm7.61,28.9H219.4l-5.82-17.08Z"/><path class="cls-1" d="M252.14,29.36h29.94l10.33,37v-37h16.89V82.19H280l-10.68-39v39H252.14Z"/><path class="cls-1" d="M322,29.36h20.12V66.82h24.63V82.19H322Z"/><path class="cls-1" d="M389.82,29.36h27.65l18.67,52.83H415.07l-3.49-11.52H394.68l-3.22,11.52H371.33Zm7.61,28.9h11.63l-5.81-17.08Z"/><path class="cls-1" d="M466.91,29.36h19.26l8.23,33.58,6.51-33.58h18L506.29,82.19H484.7l-8.87-34-8.41,34H445.5L433.17,29.36H452l6.45,33.58Z"/><path class="cls-2" d="M52.9,0a52.89,52.89,0,1,0,52.9,52.88A52.89,52.89,0,0,0,52.9,0ZM77.7,57c0,12.61-10.73,22.83-24,22.83l-.42,0-.42,0c-13.24,0-24-10.22-24-22.83a22.32,22.32,0,0,1,7.36-16.46h0l17-17.73.06.06,0-.06,17,17.73h0A22.3,22.3,0,0,1,77.7,57ZM52.9,97.26a44.38,44.38,0,1,1,0-88.75h.16L29.36,33.18h.06A31.48,31.48,0,0,0,19,56.42C19,74.23,34.19,88.68,52.9,88.68c.14,0,.27,0,.42,0l.42,0c18.68,0,33.84-14.45,33.84-32.26A31.46,31.46,0,0,0,77.2,33.19h.08L53.59,8.52a44.37,44.37,0,0,1-.69,88.74Z"/><rect class="cls-2" x="430.49" y="99.24" width="11.73" height="1.24"/><rect class="cls-2" x="199.67" y="99.23" width="11.8" height="1.24"/><path class="cls-2" d="M222.4,94.28h2.07v6c0,1.76.56,2.91,2.14,2.91s2.14-1.15,2.14-2.91v-6h2.07v6.59c0,2.76-1.57,3.9-4.21,3.9s-4.21-1.14-4.21-3.9Z"/><path class="cls-2" d="M233,94.28h2.54L239.5,102h0V94.28h2v10.31H239L235,96.88h0v7.71h-2Z"/><path class="cls-2" d="M243.61,94.28h2.07v10.31h-2.07Z"/><path class="cls-2" d="M247.9,94.28h5.73V95.9H250v2.54h3.49v1.63H250v4.52H247.9Z"/><path class="cls-2" d="M255.1,94.28h2.07v10.31H255.1Z"/><path class="cls-2" d="M259.38,94.28h6.09V95.9h-4v2.54h3.68v1.63h-3.68V103h4v1.63h-6.12Z"/><path class="cls-2" d="M267.59,94.28h2.82c3.16,0,6,1.06,6,5.15s-2.79,5.16-6,5.16h-2.82Zm2.07,8.68h1.15a3.53,3.53,0,0,0,0-7.06h-1.15Z"/><path class="cls-2" d="M282.36,94.28h5.73V95.9h-3.66v2.54h3.49v1.63h-3.49v4.52h-2.07Z"/><path class="cls-2" d="M289.67,94.28h2.07v6c0,1.76.56,2.91,2.14,2.91S296,102,296,100.23v-6h2.07v6.59c0,2.76-1.57,3.9-4.21,3.9s-4.21-1.14-4.21-3.9Z"/><path class="cls-2" d="M300.4,94.28h6.08V95.9h-4v2.54h3.68v1.63h-3.68V103h4v1.63H300.4Z"/><path class="cls-2" d="M308.61,94.28h2.07V103h4v1.63h-6.07Z"/><path class="cls-2" d="M320.1,94.28h3.31l2.45,7.81h0l2.45-7.81h3.31v10.31h-2V96.08h0l-2.78,8.51h-2l-2.78-8.51,0,0v8.48h-2Z"/><path class="cls-2" d="M337,94.28h2.33l4,10.31h-2.29l-.89-2.36H336l-.9,2.36H333Zm1.14,2.07h0l-1.49,4.25h3Z"/><path class="cls-2" d="M344.59,94.28h2.54l3.93,7.71h0V94.28h2v10.31h-2.53l-3.94-7.71h0v7.71h-2Z"/><path class="cls-2" d="M358.31,94.28h2.33l4,10.31H362.4l-.89-2.36h-4.18l-.9,2.36h-2.14Zm1.14,2.07h0l-1.49,4.25h3Z"/><path class="cls-2" d="M374.07,96.27a6.73,6.73,0,0,0-2.66-.55,3.51,3.51,0,0,0-3.74,3.74,3.4,3.4,0,0,0,3.5,3.68,5.58,5.58,0,0,0,1.36-.15v-2.69h-2.19V98.68h4.17v5.55a13,13,0,0,1-3.34.53c-3.34,0-5.66-1.67-5.66-5.16s2.16-5.51,5.66-5.51a10.18,10.18,0,0,1,3,.43Z"/><path class="cls-2" d="M376.68,94.28h6.09V95.9h-4v2.54h3.68v1.63h-3.68V103h4v1.63h-6.12Z"/><path class="cls-2" d="M384.89,94.28h3.31l2.45,7.81h0l2.45-7.81h3.31v10.31h-2V96.08h0l-2.78,8.51h-2l-2.78-8.51,0,0v8.48h-2Z"/><path class="cls-2" d="M398.83,94.28h6.09V95.9h-4v2.54h3.68v1.63h-3.68V103h4v1.63h-6.12Z"/><path class="cls-2" d="M406.93,94.28h2.54L413.4,102h0V94.28h2v10.31h-2.53l-3.94-7.71h0v7.71h-2Z"/><path class="cls-2" d="M419.57,95.9h-3V94.28h8V95.9h-3v8.69h-2.07Z"/></svg>